<svg width="24" height="24" viewBox="0 0 24 24" fill="none" xmlns="http://www.w3.org/2000/svg">
<path d="M12.0003 21.0005C13.2035 21.0005 14.3944 20.7594 15.5028 20.2912C16.6111 19.8231 17.6143 19.1375 18.4531 18.2749C19.2919 17.4123 19.9492 16.3903 20.3862 15.2694C20.8232 14.1484 21.031 12.9511 20.9973 11.7485C19.7387 12.6245 18.2271 13.063 16.695 12.9966C15.1629 12.9301 13.695 12.3624 12.517 11.3806C11.3389 10.3988 10.5158 9.05731 10.1743 7.56229C9.83269 6.06727 9.99152 4.50145 10.6263 3.10547C8.38456 3.45093 6.35589 4.63013 4.94623 6.40714C3.53656 8.18414 2.84985 10.4279 3.0235 12.6895C3.19715 14.9511 4.21834 17.0637 5.88277 18.6046C7.54719 20.1456 9.73209 21.0013 12.0003 21.0005Z" stroke="#fff" stroke-width="1.5" stroke-linecap="round" stroke-linejoin="round"/>
</svg>
