<svg width="24" height="24" viewBox="0 0 24 24" fill="none" xmlns="http://www.w3.org/2000/svg">
<path d="M13.5 3.75C13.5 3.55109 13.579 3.36032 13.7197 3.21967C13.8603 3.07902 14.0511 3 14.25 3L19.5 3C19.8978 3 20.2794 3.15804 20.5607 3.43934C20.842 3.72064 21 4.10217 21 4.5L21 19.5C21 19.8978 20.842 20.2794 20.5607 20.5607C20.2794 20.842 19.8978 21 19.5 21L14.25 21C14.0511 21 13.8603 20.921 13.7197 20.7803C13.579 20.6397 13.5 20.4489 13.5 20.25C13.5 20.0511 13.579 19.8603 13.7197 19.7197C13.8603 19.579 14.0511 19.5 14.25 19.5L19.5 19.5L19.5 4.5L14.25 4.5C14.0511 4.5 13.8603 4.42098 13.7197 4.28033C13.579 4.13968 13.5 3.94891 13.5 3.75ZM3.21938 12.5306L6.96938 16.2806C7.11011 16.4214 7.30098 16.5004 7.5 16.5004C7.69902 16.5004 7.88989 16.4214 8.03063 16.2806C8.17136 16.1399 8.25042 15.949 8.25042 15.75C8.25042 15.551 8.17136 15.3601 8.03063 15.2194L5.56031 12.75L14.25 12.75C14.4489 12.75 14.6397 12.671 14.7803 12.5303C14.921 12.3897 15 12.1989 15 12C15 11.8011 14.921 11.6103 14.7803 11.4697C14.6397 11.329 14.4489 11.25 14.25 11.25L5.56031 11.25L8.03063 8.78062C8.17136 8.63989 8.25042 8.44902 8.25042 8.25C8.25042 8.05098 8.17136 7.8601 8.03063 7.71937C7.8899 7.57864 7.69902 7.49958 7.5 7.49958C7.30098 7.49958 7.11011 7.57864 6.96938 7.71937L3.21938 11.4694C3.14964 11.539 3.09432 11.6217 3.05658 11.7128C3.01884 11.8038 2.99941 11.9014 2.99941 12C2.99941 12.0986 3.01884 12.1962 3.05658 12.2872C3.09432 12.3783 3.14964 12.461 3.21938 12.5306Z" fill="#101010"/>
</svg>
