<svg width="24" height="24" viewBox="0 0 24 24" fill="none" xmlns="http://www.w3.org/2000/svg">
<path d="M10 18.9326H14C14.1326 18.9326 14.2598 18.8799 14.3536 18.7862C14.4473 18.6924 14.5 18.5652 14.5 18.4326C14.5 18.3 14.4473 18.1728 14.3536 18.0791C14.2598 17.9853 14.1326 17.9326 14 17.9326H10C9.86739 17.9326 9.74021 17.9853 9.64645 18.0791C9.55268 18.1728 9.5 18.3 9.5 18.4326C9.5 18.5652 9.55268 18.6924 9.64645 18.7862C9.74021 18.8799 9.86739 18.9326 10 18.9326Z" fill="#F9F9F9"/>
<path d="M16.727 21.9375H7.27304C6.64565 21.9 6.05842 21.6164 5.63912 21.1482C5.21981 20.68 5.00235 20.0652 5.03404 19.4375V4.56348C5.00235 3.93577 5.21981 3.32094 5.63912 2.85276C6.05842 2.38457 6.64565 2.1009 7.27304 2.06348H16.727C17.3544 2.1009 17.9417 2.38457 18.361 2.85276C18.7803 3.32094 18.9977 3.93577 18.966 4.56348V19.4375C18.9977 20.0652 18.7803 20.68 18.361 21.1482C17.9417 21.6164 17.3544 21.9 16.727 21.9375ZM7.27304 3.06348C6.91133 3.10168 6.579 3.28015 6.34737 3.56058C6.11573 3.84101 6.00325 4.20106 6.03404 4.56348V19.4375C6.00325 19.7999 6.11573 20.1599 6.34737 20.4404C6.579 20.7208 6.91133 20.8993 7.27304 20.9375H16.727C17.0888 20.8993 17.4211 20.7208 17.6527 20.4404C17.8844 20.1599 17.9968 19.7999 17.966 19.4375V4.56348C17.9968 4.20106 17.8844 3.84101 17.6527 3.56058C17.4211 3.28015 17.0888 3.10168 16.727 3.06348H7.27304Z" fill="#F9F9F9"/>
</svg>
