<svg width="24" height="24" viewBox="0 0 24 24" fill="none" xmlns="http://www.w3.org/2000/svg">
<g clip-path="url(#clip0_726_1687)">
<path d="M21.9734 11.9241L21.9734 11.9241L21.9756 11.9282L22.0165 12.0021L21.9735 12.0814L21.9723 12.0837C19.8106 16.1239 16.0244 18.4862 11.8665 18.4862C7.71082 18.4862 3.92924 16.0926 1.7596 12.0816L1.75946 12.0814L1.72149 12.0113L1.7627 11.9421L1.76848 11.9324L1.77382 11.9224C3.92305 7.91355 7.71028 5.51953 11.8665 5.51953C16.0222 5.51953 19.8037 7.91315 21.9734 11.9241ZM2.23156 11.7529L2.09168 11.9995L2.23156 12.2462C4.31253 15.9156 7.91781 18.1195 11.8665 18.1195C15.8109 18.1195 19.3803 15.9136 21.493 12.2493L21.6371 11.9993L21.4928 11.7494C19.3804 8.09266 15.8181 5.87953 11.8665 5.87953C7.91781 5.87953 4.31253 8.08343 2.23156 11.7529Z" fill="#101010" stroke="#F9F9F9"/>
<path d="M12.06 7.44641C11.1561 7.45301 10.2744 7.72733 9.52626 8.23473C8.77815 8.74213 8.19719 9.45985 7.85676 10.2972C7.51632 11.1346 7.43167 12.0541 7.61351 12.9396C7.79534 13.8251 8.23551 14.6368 8.8784 15.2722C9.5213 15.9077 10.3381 16.3384 11.2256 16.5099C12.1131 16.6814 13.0316 16.586 13.865 16.2359C14.6983 15.8857 15.4092 15.2964 15.9079 14.5425C16.4065 13.7885 16.6706 12.9037 16.6666 11.9997C16.664 11.398 16.5427 10.8028 16.3096 10.248C16.0765 9.69329 15.7363 9.19001 15.3083 8.76701C14.8804 8.34402 14.3731 8.00964 13.8157 7.78302C13.2583 7.55641 12.6617 7.44202 12.06 7.44641ZM12.06 15.2597C11.4215 15.2532 10.7992 15.0581 10.2712 14.699C9.74321 14.3398 9.33311 13.8327 9.09241 13.2413C8.8517 12.6499 8.79111 12.0005 8.91825 11.3748C9.0454 10.749 9.3546 10.1748 9.80703 9.72422C10.2595 9.27363 10.8349 8.96678 11.4612 8.84219C12.0875 8.7176 12.7366 8.78084 13.327 9.02396C13.9174 9.26708 14.4229 9.67924 14.7798 10.2087C15.1368 10.7381 15.3293 11.3612 15.3333 11.9997C15.3351 12.4295 15.2515 12.8553 15.0875 13.2525C14.9235 13.6497 14.6822 14.0104 14.3777 14.3136C14.0732 14.6169 13.7116 14.8566 13.3137 15.0191C12.9158 15.1815 12.4897 15.2633 12.06 15.2597Z" fill="#F9F9F9"/>
</g>
<defs>
<clipPath id="clip0_726_1687">
<rect width="24" height="24" fill="white"/>
</clipPath>
</defs>
</svg>
