<svg width="24" height="24" viewBox="0 0 24 24" fill="none" xmlns="http://www.w3.org/2000/svg">
<path d="M12.375 20.4854C12.375 20.5595 12.353 20.632 12.3118 20.6937C12.2706 20.7554 12.212 20.8034 12.1435 20.8318C12.075 20.8602 11.9996 20.8676 11.9268 20.8531C11.8541 20.8387 11.7873 20.803 11.7348 20.7505C11.6824 20.6981 11.6467 20.6313 11.6322 20.5585C11.6177 20.4858 11.6252 20.4104 11.6535 20.3418C11.6819 20.2733 11.73 20.2148 11.7917 20.1735C11.8533 20.1323 11.9258 20.1104 12 20.1104C12.0493 20.1104 12.0981 20.1201 12.1436 20.1389C12.1892 20.1578 12.2305 20.1855 12.2653 20.2204C12.3002 20.2552 12.3278 20.2966 12.3466 20.3422C12.3654 20.3877 12.3751 20.4361 12.375 20.4854Z" fill="#F9F9F9"/>
<path d="M6.25 4.45117H17.75V19.4512H6.25V4.45117Z" stroke="#F9F9F9" stroke-linecap="round" stroke-linejoin="round"/>
<path d="M6.56199 2.2505H17.438C17.6576 2.25004 17.8752 2.29284 18.0783 2.37647C18.2814 2.4601 18.466 2.58291 18.6217 2.73789C18.7773 2.89287 18.9009 3.07699 18.9853 3.27973C19.0698 3.48247 19.1135 3.69986 19.114 3.9195V20.074C19.1145 20.2936 19.0718 20.5112 18.9882 20.7143C18.9046 20.9175 18.7819 21.1021 18.627 21.2578C18.472 21.4135 18.2879 21.5371 18.0852 21.6217C17.8825 21.7062 17.6651 21.75 17.4455 21.7505H6.56199C6.34235 21.751 6.12478 21.7082 5.92169 21.6245C5.71859 21.5409 5.53396 21.4181 5.37833 21.2631C5.2227 21.1081 5.09912 20.924 5.01464 20.7213C4.93017 20.5185 4.88645 20.3011 4.88599 20.0815V3.9265C4.88547 3.70686 4.9282 3.48928 5.01177 3.28616C5.09534 3.08304 5.21809 2.89837 5.37302 2.74269C5.52796 2.58701 5.71204 2.46338 5.91476 2.37884C6.11747 2.2943 6.33486 2.25052 6.55449 2.25L6.56199 2.2505Z" stroke="#F9F9F9" stroke-linecap="round" stroke-linejoin="round"/>
</svg>
