<svg width="24" height="24" viewBox="0 0 24 24" fill="none" xmlns="http://www.w3.org/2000/svg">
<path d="M21.2255 14.957V17.9035C21.2256 18.1627 21.1746 18.4193 21.0755 18.6587C20.9763 18.8982 20.831 19.1157 20.6478 19.299C20.4646 19.4823 20.2471 19.6276 20.0077 19.7268C19.7682 19.826 19.5116 19.877 19.2525 19.877H4.223C3.96386 19.877 3.70726 19.826 3.46785 19.7268C3.22844 19.6276 3.01092 19.4823 2.8277 19.299C2.64449 19.1157 2.49917 18.8982 2.40004 18.6587C2.30092 18.4193 2.24993 18.1627 2.25 17.9035V6.09655C2.24993 5.83736 2.30094 5.58071 2.40009 5.34124C2.49924 5.10178 2.64461 4.88419 2.82788 4.70092C3.01115 4.51766 3.22873 4.37229 3.4682 4.27314C3.70766 4.17398 3.96432 4.12298 4.2235 4.12305H19.2525C19.5116 4.12305 19.7682 4.1741 20.0077 4.27328C20.2471 4.37246 20.4646 4.51784 20.6478 4.7011C20.831 4.88436 20.9763 5.10193 21.0755 5.34136C21.1746 5.58079 21.2256 5.83741 21.2255 6.09655V9.14555" stroke="#101010" stroke-width="2" stroke-linecap="round" stroke-linejoin="round"/>
<path d="M21.147 14.9621H15.9625C15.1905 14.9621 14.45 14.6555 13.9041 14.1095C13.3582 13.5636 13.0515 12.8232 13.0515 12.0511C13.0514 11.6688 13.1267 11.2902 13.273 10.937C13.4192 10.5838 13.6336 10.2628 13.9039 9.99244C14.1743 9.72207 14.4952 9.50761 14.8484 9.36128C15.2016 9.21496 15.5802 9.13965 15.9625 9.13965H21.1475C21.48 9.13965 21.75 9.40965 21.75 9.74265V14.3596C21.75 14.6921 21.48 14.9621 21.147 14.9621Z" stroke="#101010" stroke-width="1.5" stroke-linecap="round" stroke-linejoin="round"/>
<path d="M16.229 13.4384C16.9759 13.4384 17.5815 12.8329 17.5815 12.0859C17.5815 11.3389 16.9759 10.7334 16.229 10.7334C15.482 10.7334 14.8765 11.3389 14.8765 12.0859C14.8765 12.8329 15.482 13.4384 16.229 13.4384Z" stroke="#101010" stroke-linecap="round" stroke-linejoin="round"/>
</svg>
